<?xml version="1.0" encoding="UTF-8"?>
<svg id="Layer_1" data-name="Layer 1" xmlns="http://www.w3.org/2000/svg" xmlns:xlink="http://www.w3.org/1999/xlink" viewBox="0 0 950 950">
  <defs>
    <style>
      .cls-1 {
        fill: url(#radial-gradient-7);
      }

      .cls-2 {
        fill: url(#radial-gradient-10);
      }

      .cls-3 {
        fill: #fff;
      }

      .cls-4 {
        fill: url(#radial-gradient-8);
      }

      .cls-5 {
        fill: url(#radial-gradient-5);
      }

      .cls-6 {
        fill: url(#radial-gradient-4);
      }

      .cls-7 {
        fill: url(#radial-gradient-6);
      }

      .cls-8 {
        fill: url(#radial-gradient-12);
      }

      .cls-9 {
        fill: url(#radial-gradient);
      }

      .cls-10 {
        fill: url(#radial-gradient-13);
      }

      .cls-11 {
        clip-path: url(#clippath);
      }

      .cls-12 {
        fill: url(#radial-gradient-2);
      }

      .cls-13 {
        fill: none;
      }

      .cls-14 {
        fill: url(#radial-gradient-3);
      }

      .cls-15 {
        fill: url(#linear-gradient);
      }

      .cls-16 {
        fill: #7d2ae7;
      }

      .cls-17 {
        fill: url(#radial-gradient-11);
      }

      .cls-18 {
        fill: url(#radial-gradient-9);
      }
    </style>
    <linearGradient id="linear-gradient" x1="920.04" y1="90.85" x2="163.01" y2="271.01" gradientTransform="translate(0 952) scale(1 -1)" gradientUnits="userSpaceOnUse">
      <stop offset="0" stop-color="#7d2ae7"/>
      <stop offset=".77" stop-color="#7d2ae7"/>
      <stop offset="1" stop-color="#7d2ae7" stop-opacity="0"/>
    </linearGradient>
    <radialGradient id="radial-gradient" cx="-36.83" cy="988.53" fx="-36.83" fy="988.53" r=".45" gradientTransform="translate(299763.21 260899.16) rotate(-45.81) scale(602.52 -400.42)" gradientUnits="userSpaceOnUse">
      <stop offset="0" stop-color="#6420ff"/>
      <stop offset="1" stop-color="#6420ff" stop-opacity="0"/>
    </radialGradient>
    <radialGradient id="radial-gradient-2" cx="-35.95" cy="987.61" fx="-35.95" fy="987.61" r=".45" gradientTransform="translate(-39835.57 923884.9) rotate(5.09) scale(1172.62 -934.6)" gradientUnits="userSpaceOnUse">
      <stop offset=".25" stop-color="#00c4cc"/>
      <stop offset="1" stop-color="#00c4cc" stop-opacity="0"/>
    </radialGradient>
    <radialGradient id="radial-gradient-3" cx="-36.63" cy="988.12" fx="-36.63" fy="988.12" r=".45" gradientTransform="translate(342221.12 381110.37) rotate(-38.85) scale(755.65 -516.69)" xlink:href="#radial-gradient"/>
    <radialGradient id="radial-gradient-4" cx="-36.13" cy="987.74" fx="-36.13" fy="987.74" r=".45" gradientTransform="translate(361363.37 474671.63) rotate(-34.27) scale(880.91 -602.34)" xlink:href="#radial-gradient"/>
    <radialGradient id="radial-gradient-5" cx="-35.96" cy="987.74" fx="-35.96" fy="987.74" r=".45" gradientTransform="translate(-394259.28 2073520.63) rotate(12.47) scale(1741.08 -2135.37)" gradientUnits="userSpaceOnUse">
      <stop offset="0" stop-color="#00c4cc" stop-opacity=".73"/>
      <stop offset="0" stop-color="#00c4cc"/>
      <stop offset="1" stop-color="#00c4cc" stop-opacity="0"/>
    </radialGradient>
    <clipPath id="clippath">
      <rect class="cls-13" x="35.95" y="77.35" width="406.36" height="421.39" rx="74.36" ry="74.36"/>
    </clipPath>
    <radialGradient id="radial-gradient-6" cx="1.46" cy="951.67" fx="1.46" fy="951.67" r=".33" gradientTransform="translate(1060736.14 911951.85) rotate(-49.42) scale(1469.49 -1469.49)" gradientUnits="userSpaceOnUse">
      <stop offset="0" stop-color="#6420ff"/>
      <stop offset="1" stop-color="#6420ff" stop-opacity="0"/>
    </radialGradient>
    <radialGradient id="radial-gradient-7" cx=".78" cy="950.86" fx=".78" fy="950.86" r=".33" gradientTransform="translate(-1286669.64 909455.19) rotate(54.7) scale(1657.12 -1657.12)" gradientUnits="userSpaceOnUse">
      <stop offset="0" stop-color="#00c4cc"/>
      <stop offset="1" stop-color="#00c4cc" stop-opacity="0"/>
    </radialGradient>
    <radialGradient id="radial-gradient-8" cx="1.41" cy="952.54" fx="1.41" fy="952.54" r=".33" gradientTransform="translate(449844.54 450152.23) rotate(-45.2) scale(1451.7 -667.66)" xlink:href="#radial-gradient-6"/>
    <radialGradient id="radial-gradient-9" cx=".72" cy="950.8" fx=".72" fy="950.8" r=".33" gradientTransform="translate(-2185602.11 948392.97) rotate(66.52) scale(1495.86 -2505.9)" gradientUnits="userSpaceOnUse">
      <stop offset="0" stop-color="#00c4cc" stop-opacity=".73"/>
      <stop offset="0" stop-color="#00c4cc"/>
      <stop offset="1" stop-color="#00c4cc" stop-opacity="0"/>
    </radialGradient>
    <radialGradient id="radial-gradient-10" cx="1.74" cy="951.44" fx="1.74" fy="951.44" r=".22" xlink:href="#radial-gradient-6"/>
    <radialGradient id="radial-gradient-11" cx=".99" cy="951.08" fx=".99" fy="951.08" r=".22" xlink:href="#radial-gradient-7"/>
    <radialGradient id="radial-gradient-12" cx="1.71" cy="952.08" fx="1.71" fy="952.08" r=".22" gradientTransform="translate(449844.54 450152.23) rotate(-45.2) scale(1451.7 -667.66)" xlink:href="#radial-gradient-6"/>
    <radialGradient id="radial-gradient-13" cx=".9" cy="950.98" fx=".9" fy="950.98" r=".22" xlink:href="#radial-gradient-9"/>
  </defs>
  <g>
    <path class="cls-15" d="m923.62,763.76c-1.55,0-2.96,1-3.69,3.09-9.33,26.61-21.93,42.45-32.3,42.45-5.96,0-8.37-6.64-8.37-17.06,0-26.07,15.6-81.34,23.48-106.55.91-3.05,1.5-5.78,1.5-8.1,0-7.32-4-10.92-13.92-10.92-10.69,0-22.2,4.19-33.39,23.79-3.87-17.29-15.56-24.84-31.89-24.84-18.88,0-37.12,12.15-52.14,31.85-15.01,19.7-32.67,26.16-45.95,22.97,9.55-23.38,13.1-40.85,13.1-53.82,0-20.34-10.05-32.62-26.3-32.62-24.7,0-38.94,23.57-38.94,48.36,0,19.15,8.69,38.85,27.8,48.41-16.01,36.21-39.4,68.97-48.27,68.97-11.46,0-14.83-56.09-14.19-96.22.41-23.02,2.32-24.2,2.32-31.16,0-4-2.59-6.73-13.01-6.73-24.29,0-31.8,20.56-32.94,44.18-.36,8.96-1.77,17.88-4.19,26.52-10.15,36.21-31.07,63.69-44.72,63.69-6.32,0-8.05-6.32-8.05-14.6,0-26.07,14.6-58.64,14.6-86.44,0-20.43-8.96-33.35-25.84-33.35-19.88,0-46.18,23.66-71.06,67.97,8.19-33.94,11.56-66.79-12.69-66.79-5.28.09-10.42,1.41-15.06,3.91-3.18,1.5-5.14,4.78-4.91,8.28,2.32,36.12-29.12,128.66-58.92,128.66-5.41,0-8.05-5.87-8.05-15.33,0-26.11,15.56-81.25,23.38-106.5,1-3.28,1.55-6.1,1.55-8.55,0-6.92-4.28-10.46-13.97-10.46-10.65,0-22.2,4.05-33.35,23.66-3.91-17.29-15.6-24.84-31.94-24.84-26.8,0-56.73,28.34-69.88,65.28-17.61,49.32-53.09,96.95-100.86,96.95-43.36,0-66.24-36.08-66.24-93.08,0-82.3,60.42-149.54,105.23-149.54,21.43,0,31.66,13.65,31.66,34.58,0,25.34-14.15,37.12-14.15,46.77,0,2.96,2.46,5.87,7.32,5.87,19.47,0,42.4-22.88,42.4-54.09s-25.34-54.05-70.15-54.05c-74.07,0-148.59,74.52-148.59,170.01,0,75.98,37.49,121.79,102.32,121.79,44.22,0,82.85-34.39,103.68-74.52,2.37,33.26,17.47,50.64,40.49,50.64,20.47,0,37.03-12.19,49.68-33.62,4.87,22.43,17.79,33.39,34.58,33.39,19.24,0,35.35-12.19,50.68-34.85-.23,17.79,3.82,34.53,19.24,34.53,7.28,0,15.97-1.68,17.52-8.05,16.24-67.15,56.37-121.97,68.65-121.97,3.64,0,4.64,3.5,4.64,7.64,0,18.24-12.87,55.64-12.87,79.52,0,25.8,10.96,42.86,33.62,42.86,25.11,0,50.64-30.75,67.65-75.7,5.32,41.99,16.83,75.88,34.85,75.88,22.11,0,61.37-46.54,85.17-95.81,9.33,1.18,23.34.86,36.81-8.64-5.73,14.51-9.1,30.39-9.1,46.27,0,45.72,21.84,58.55,40.63,58.55,20.43,0,36.99-12.19,49.68-33.62,4.19,19.34,14.88,33.35,34.53,33.35,30.75,0,57.46-31.44,57.46-57.23,0-6.82-2.91-10.96-6.32-10.96Zm-638.33,43.13c-12.42,0-17.29-12.51-17.29-31.16,0-32.39,22.16-86.49,45.59-86.49,10.24,0,14.1,12.06,14.1,26.8,0,32.89-21.06,90.85-42.4,90.85Zm425.42-96.68c-7.42-8.83-10.1-20.84-10.1-31.53,0-13.19,4.82-24.34,10.6-24.34s7.55,5.69,7.55,13.6c0,13.24-4.73,32.57-8.05,42.26Zm96.31,96.68c-12.42,0-17.29-14.38-17.29-31.16,0-31.25,22.16-86.49,45.77-86.49,10.24,0,13.88,11.97,13.88,26.8,0,32.89-20.7,90.85-42.36,90.85Z"/>
    <path class="cls-9" d="m923.62,763.76c-1.55,0-2.96,1-3.69,3.09-9.33,26.61-21.93,42.45-32.3,42.45-5.96,0-8.37-6.64-8.37-17.06,0-26.07,15.6-81.34,23.48-106.55.91-3.05,1.5-5.78,1.5-8.1,0-7.32-4-10.92-13.92-10.92-10.69,0-22.2,4.19-33.39,23.79-3.87-17.29-15.56-24.84-31.89-24.84-18.88,0-37.12,12.15-52.14,31.85-15.01,19.7-32.67,26.16-45.95,22.97,9.55-23.38,13.1-40.85,13.1-53.82,0-20.34-10.05-32.62-26.3-32.62-24.7,0-38.94,23.57-38.94,48.36,0,19.15,8.69,38.85,27.8,48.41-16.01,36.21-39.4,68.97-48.27,68.97-11.46,0-14.83-56.09-14.19-96.22.41-23.02,2.32-24.2,2.32-31.16,0-4-2.59-6.73-13.01-6.73-24.29,0-31.8,20.56-32.94,44.18-.36,8.96-1.77,17.88-4.19,26.52-10.15,36.21-31.07,63.69-44.72,63.69-6.32,0-8.05-6.32-8.05-14.6,0-26.07,14.6-58.64,14.6-86.44,0-20.43-8.96-33.35-25.84-33.35-19.88,0-46.18,23.66-71.06,67.97,8.19-33.94,11.56-66.79-12.69-66.79-5.28.09-10.42,1.41-15.06,3.91-3.18,1.5-5.14,4.78-4.91,8.28,2.32,36.12-29.12,128.66-58.92,128.66-5.41,0-8.05-5.87-8.05-15.33,0-26.11,15.56-81.25,23.38-106.5,1-3.28,1.55-6.1,1.55-8.55,0-6.92-4.28-10.46-13.97-10.46-10.65,0-22.2,4.05-33.35,23.66-3.91-17.29-15.6-24.84-31.94-24.84-26.8,0-56.73,28.34-69.88,65.28-17.61,49.32-53.09,96.95-100.86,96.95-43.36,0-66.24-36.08-66.24-93.08,0-82.3,60.42-149.54,105.23-149.54,21.43,0,31.66,13.65,31.66,34.58,0,25.34-14.15,37.12-14.15,46.77,0,2.96,2.46,5.87,7.32,5.87,19.47,0,42.4-22.88,42.4-54.09s-25.34-54.05-70.15-54.05c-74.07,0-148.59,74.52-148.59,170.01,0,75.98,37.49,121.79,102.32,121.79,44.22,0,82.85-34.39,103.68-74.52,2.37,33.26,17.47,50.64,40.49,50.64,20.47,0,37.03-12.19,49.68-33.62,4.87,22.43,17.79,33.39,34.58,33.39,19.24,0,35.35-12.19,50.68-34.85-.23,17.79,3.82,34.53,19.24,34.53,7.28,0,15.97-1.68,17.52-8.05,16.24-67.15,56.37-121.97,68.65-121.97,3.64,0,4.64,3.5,4.64,7.64,0,18.24-12.87,55.64-12.87,79.52,0,25.8,10.96,42.86,33.62,42.86,25.11,0,50.64-30.75,67.65-75.7,5.32,41.99,16.83,75.88,34.85,75.88,22.11,0,61.37-46.54,85.17-95.81,9.33,1.18,23.34.86,36.81-8.64-5.73,14.51-9.1,30.39-9.1,46.27,0,45.72,21.84,58.55,40.63,58.55,20.43,0,36.99-12.19,49.68-33.62,4.19,19.34,14.88,33.35,34.53,33.35,30.75,0,57.46-31.44,57.46-57.23,0-6.82-2.91-10.96-6.32-10.96Zm-638.33,43.13c-12.42,0-17.29-12.51-17.29-31.16,0-32.39,22.16-86.49,45.59-86.49,10.24,0,14.1,12.06,14.1,26.8,0,32.89-21.06,90.85-42.4,90.85Zm425.42-96.68c-7.42-8.83-10.1-20.84-10.1-31.53,0-13.19,4.82-24.34,10.6-24.34s7.55,5.69,7.55,13.6c0,13.24-4.73,32.57-8.05,42.26Zm96.31,96.68c-12.42,0-17.29-14.38-17.29-31.16,0-31.25,22.16-86.49,45.77-86.49,10.24,0,13.88,11.97,13.88,26.8,0,32.89-20.7,90.85-42.36,90.85Z"/>
    <path class="cls-12" d="m923.62,763.76c-1.55,0-2.96,1-3.69,3.09-9.33,26.61-21.93,42.45-32.3,42.45-5.96,0-8.37-6.64-8.37-17.06,0-26.07,15.6-81.34,23.48-106.55.91-3.05,1.5-5.78,1.5-8.1,0-7.32-4-10.92-13.92-10.92-10.69,0-22.2,4.19-33.39,23.79-3.87-17.29-15.56-24.84-31.89-24.84-18.88,0-37.12,12.15-52.14,31.85-15.01,19.7-32.67,26.16-45.95,22.97,9.55-23.38,13.1-40.85,13.1-53.82,0-20.34-10.05-32.62-26.3-32.62-24.7,0-38.94,23.57-38.94,48.36,0,19.15,8.69,38.85,27.8,48.41-16.01,36.21-39.4,68.97-48.27,68.97-11.46,0-14.83-56.09-14.19-96.22.41-23.02,2.32-24.2,2.32-31.16,0-4-2.59-6.73-13.01-6.73-24.29,0-31.8,20.56-32.94,44.18-.36,8.96-1.77,17.88-4.19,26.52-10.15,36.21-31.07,63.69-44.72,63.69-6.32,0-8.05-6.32-8.05-14.6,0-26.07,14.6-58.64,14.6-86.44,0-20.43-8.96-33.35-25.84-33.35-19.88,0-46.18,23.66-71.06,67.97,8.19-33.94,11.56-66.79-12.69-66.79-5.28.09-10.42,1.41-15.06,3.91-3.18,1.5-5.14,4.78-4.91,8.28,2.32,36.12-29.12,128.66-58.92,128.66-5.41,0-8.05-5.87-8.05-15.33,0-26.11,15.56-81.25,23.38-106.5,1-3.28,1.55-6.1,1.55-8.55,0-6.92-4.28-10.46-13.97-10.46-10.65,0-22.2,4.05-33.35,23.66-3.91-17.29-15.6-24.84-31.94-24.84-26.8,0-56.73,28.34-69.88,65.28-17.61,49.32-53.09,96.95-100.86,96.95-43.36,0-66.24-36.08-66.24-93.08,0-82.3,60.42-149.54,105.23-149.54,21.43,0,31.66,13.65,31.66,34.58,0,25.34-14.15,37.12-14.15,46.77,0,2.96,2.46,5.87,7.32,5.87,19.47,0,42.4-22.88,42.4-54.09s-25.34-54.05-70.15-54.05c-74.07,0-148.59,74.52-148.59,170.01,0,75.98,37.49,121.79,102.32,121.79,44.22,0,82.85-34.39,103.68-74.52,2.37,33.26,17.47,50.64,40.49,50.64,20.47,0,37.03-12.19,49.68-33.62,4.87,22.43,17.79,33.39,34.58,33.39,19.24,0,35.35-12.19,50.68-34.85-.23,17.79,3.82,34.53,19.24,34.53,7.28,0,15.97-1.68,17.52-8.05,16.24-67.15,56.37-121.97,68.65-121.97,3.64,0,4.64,3.5,4.64,7.64,0,18.24-12.87,55.64-12.87,79.52,0,25.8,10.96,42.86,33.62,42.86,25.11,0,50.64-30.75,67.65-75.7,5.32,41.99,16.83,75.88,34.85,75.88,22.11,0,61.37-46.54,85.17-95.81,9.33,1.18,23.34.86,36.81-8.64-5.73,14.51-9.1,30.39-9.1,46.27,0,45.72,21.84,58.55,40.63,58.55,20.43,0,36.99-12.19,49.68-33.62,4.19,19.34,14.88,33.35,34.53,33.35,30.75,0,57.46-31.44,57.46-57.23,0-6.82-2.91-10.96-6.32-10.96Zm-638.33,43.13c-12.42,0-17.29-12.51-17.29-31.16,0-32.39,22.16-86.49,45.59-86.49,10.24,0,14.1,12.06,14.1,26.8,0,32.89-21.06,90.85-42.4,90.85Zm425.42-96.68c-7.42-8.83-10.1-20.84-10.1-31.53,0-13.19,4.82-24.34,10.6-24.34s7.55,5.69,7.55,13.6c0,13.24-4.73,32.57-8.05,42.26Zm96.31,96.68c-12.42,0-17.29-14.38-17.29-31.16,0-31.25,22.16-86.49,45.77-86.49,10.24,0,13.88,11.97,13.88,26.8,0,32.89-20.7,90.85-42.36,90.85Z"/>
    <path class="cls-14" d="m923.62,763.76c-1.55,0-2.96,1-3.69,3.09-9.33,26.61-21.93,42.45-32.3,42.45-5.96,0-8.37-6.64-8.37-17.06,0-26.07,15.6-81.34,23.48-106.55.91-3.05,1.5-5.78,1.5-8.1,0-7.32-4-10.92-13.92-10.92-10.69,0-22.2,4.19-33.39,23.79-3.87-17.29-15.56-24.84-31.89-24.84-18.88,0-37.12,12.15-52.14,31.85-15.01,19.7-32.67,26.16-45.95,22.97,9.55-23.38,13.1-40.85,13.1-53.82,0-20.34-10.05-32.62-26.3-32.62-24.7,0-38.94,23.57-38.94,48.36,0,19.15,8.69,38.85,27.8,48.41-16.01,36.21-39.4,68.97-48.27,68.97-11.46,0-14.83-56.09-14.19-96.22.41-23.02,2.32-24.2,2.32-31.16,0-4-2.59-6.73-13.01-6.73-24.29,0-31.8,20.56-32.94,44.18-.36,8.96-1.77,17.88-4.19,26.52-10.15,36.21-31.07,63.69-44.72,63.69-6.32,0-8.05-6.32-8.05-14.6,0-26.07,14.6-58.64,14.6-86.44,0-20.43-8.96-33.35-25.84-33.35-19.88,0-46.18,23.66-71.06,67.97,8.19-33.94,11.56-66.79-12.69-66.79-5.28.09-10.42,1.41-15.06,3.91-3.18,1.5-5.14,4.78-4.91,8.28,2.32,36.12-29.12,128.66-58.92,128.66-5.41,0-8.05-5.87-8.05-15.33,0-26.11,15.56-81.25,23.38-106.5,1-3.28,1.55-6.1,1.55-8.55,0-6.92-4.28-10.46-13.97-10.46-10.65,0-22.2,4.05-33.35,23.66-3.91-17.29-15.6-24.84-31.94-24.84-26.8,0-56.73,28.34-69.88,65.28-17.61,49.32-53.09,96.95-100.86,96.95-43.36,0-66.24-36.08-66.24-93.08,0-82.3,60.42-149.54,105.23-149.54,21.43,0,31.66,13.65,31.66,34.58,0,25.34-14.15,37.12-14.15,46.77,0,2.96,2.46,5.87,7.32,5.87,19.47,0,42.4-22.88,42.4-54.09s-25.34-54.05-70.15-54.05c-74.07,0-148.59,74.52-148.59,170.01,0,75.98,37.49,121.79,102.32,121.79,44.22,0,82.85-34.39,103.68-74.52,2.37,33.26,17.47,50.64,40.49,50.64,20.47,0,37.03-12.19,49.68-33.62,4.87,22.43,17.79,33.39,34.58,33.39,19.24,0,35.35-12.19,50.68-34.85-.23,17.79,3.82,34.53,19.24,34.53,7.28,0,15.97-1.68,17.52-8.05,16.24-67.15,56.37-121.97,68.65-121.97,3.64,0,4.64,3.5,4.64,7.64,0,18.24-12.87,55.64-12.87,79.52,0,25.8,10.96,42.86,33.62,42.86,25.11,0,50.64-30.75,67.65-75.7,5.32,41.99,16.83,75.88,34.85,75.88,22.11,0,61.37-46.54,85.17-95.81,9.33,1.18,23.34.86,36.81-8.64-5.73,14.51-9.1,30.39-9.1,46.27,0,45.72,21.84,58.55,40.63,58.55,20.43,0,36.99-12.19,49.68-33.62,4.19,19.34,14.88,33.35,34.53,33.35,30.75,0,57.46-31.44,57.46-57.23,0-6.82-2.91-10.96-6.32-10.96Zm-638.33,43.13c-12.42,0-17.29-12.51-17.29-31.16,0-32.39,22.16-86.49,45.59-86.49,10.24,0,14.1,12.06,14.1,26.8,0,32.89-21.06,90.85-42.4,90.85Zm425.42-96.68c-7.42-8.83-10.1-20.84-10.1-31.53,0-13.19,4.82-24.34,10.6-24.34s7.55,5.69,7.55,13.6c0,13.24-4.73,32.57-8.05,42.26Zm96.31,96.68c-12.42,0-17.29-14.38-17.29-31.16,0-31.25,22.16-86.49,45.77-86.49,10.24,0,13.88,11.97,13.88,26.8,0,32.89-20.7,90.85-42.36,90.85Z"/>
    <path class="cls-6" d="m923.62,763.76c-1.55,0-2.96,1-3.69,3.09-9.33,26.61-21.93,42.45-32.3,42.45-5.96,0-8.37-6.64-8.37-17.06,0-26.07,15.6-81.34,23.48-106.55.91-3.05,1.5-5.78,1.5-8.1,0-7.32-4-10.92-13.92-10.92-10.69,0-22.2,4.19-33.39,23.79-3.87-17.29-15.56-24.84-31.89-24.84-18.88,0-37.12,12.15-52.14,31.85-15.01,19.7-32.67,26.16-45.95,22.97,9.55-23.38,13.1-40.85,13.1-53.82,0-20.34-10.05-32.62-26.3-32.62-24.7,0-38.94,23.57-38.94,48.36,0,19.15,8.69,38.85,27.8,48.41-16.01,36.21-39.4,68.97-48.27,68.97-11.46,0-14.83-56.09-14.19-96.22.41-23.02,2.32-24.2,2.32-31.16,0-4-2.59-6.73-13.01-6.73-24.29,0-31.8,20.56-32.94,44.18-.36,8.96-1.77,17.88-4.19,26.52-10.15,36.21-31.07,63.69-44.72,63.69-6.32,0-8.05-6.32-8.05-14.6,0-26.07,14.6-58.64,14.6-86.44,0-20.43-8.96-33.35-25.84-33.35-19.88,0-46.18,23.66-71.06,67.97,8.19-33.94,11.56-66.79-12.69-66.79-5.28.09-10.42,1.41-15.06,3.91-3.18,1.5-5.14,4.78-4.91,8.28,2.32,36.12-29.12,128.66-58.92,128.66-5.41,0-8.05-5.87-8.05-15.33,0-26.11,15.56-81.25,23.38-106.5,1-3.28,1.55-6.1,1.55-8.55,0-6.92-4.28-10.46-13.97-10.46-10.65,0-22.2,4.05-33.35,23.66-3.91-17.29-15.6-24.84-31.94-24.84-26.8,0-56.73,28.34-69.88,65.28-17.61,49.32-53.09,96.95-100.86,96.95-43.36,0-66.24-36.08-66.24-93.08,0-82.3,60.42-149.54,105.23-149.54,21.43,0,31.66,13.65,31.66,34.58,0,25.34-14.15,37.12-14.15,46.77,0,2.96,2.46,5.87,7.32,5.87,19.47,0,42.4-22.88,42.4-54.09s-25.34-54.05-70.15-54.05c-74.07,0-148.59,74.52-148.59,170.01,0,75.98,37.49,121.79,102.32,121.79,44.22,0,82.85-34.39,103.68-74.52,2.37,33.26,17.47,50.64,40.49,50.64,20.47,0,37.03-12.19,49.68-33.62,4.87,22.43,17.79,33.39,34.58,33.39,19.24,0,35.35-12.19,50.68-34.85-.23,17.79,3.82,34.53,19.24,34.53,7.28,0,15.97-1.68,17.52-8.05,16.24-67.15,56.37-121.97,68.65-121.97,3.64,0,4.64,3.5,4.64,7.64,0,18.24-12.87,55.64-12.87,79.52,0,25.8,10.96,42.86,33.62,42.86,25.11,0,50.64-30.75,67.65-75.7,5.32,41.99,16.83,75.88,34.85,75.88,22.11,0,61.37-46.54,85.17-95.81,9.33,1.18,23.34.86,36.81-8.64-5.73,14.51-9.1,30.39-9.1,46.27,0,45.72,21.84,58.55,40.63,58.55,20.43,0,36.99-12.19,49.68-33.62,4.19,19.34,14.88,33.35,34.53,33.35,30.75,0,57.46-31.44,57.46-57.23,0-6.82-2.91-10.96-6.32-10.96Zm-638.33,43.13c-12.42,0-17.29-12.51-17.29-31.16,0-32.39,22.16-86.49,45.59-86.49,10.24,0,14.1,12.06,14.1,26.8,0,32.89-21.06,90.85-42.4,90.85Zm425.42-96.68c-7.42-8.83-10.1-20.84-10.1-31.53,0-13.19,4.82-24.34,10.6-24.34s7.55,5.69,7.55,13.6c0,13.24-4.73,32.57-8.05,42.26Zm96.31,96.68c-12.42,0-17.29-14.38-17.29-31.16,0-31.25,22.16-86.49,45.77-86.49,10.24,0,13.88,11.97,13.88,26.8,0,32.89-20.7,90.85-42.36,90.85Z"/>
    <path class="cls-5" d="m923.62,763.76c-1.55,0-2.96,1-3.69,3.09-9.33,26.61-21.93,42.45-32.3,42.45-5.96,0-8.37-6.64-8.37-17.06,0-26.07,15.6-81.34,23.48-106.55.91-3.05,1.5-5.78,1.5-8.1,0-7.32-4-10.92-13.92-10.92-10.69,0-22.2,4.19-33.39,23.79-3.87-17.29-15.56-24.84-31.89-24.84-18.88,0-37.12,12.15-52.14,31.85-15.01,19.7-32.67,26.16-45.95,22.97,9.55-23.38,13.1-40.85,13.1-53.82,0-20.34-10.05-32.62-26.3-32.62-24.7,0-38.94,23.57-38.94,48.36,0,19.15,8.69,38.85,27.8,48.41-16.01,36.21-39.4,68.97-48.27,68.97-11.46,0-14.83-56.09-14.19-96.22.41-23.02,2.32-24.2,2.32-31.16,0-4-2.59-6.73-13.01-6.73-24.29,0-31.8,20.56-32.94,44.18-.36,8.96-1.77,17.88-4.19,26.52-10.15,36.21-31.07,63.69-44.72,63.69-6.32,0-8.05-6.32-8.05-14.6,0-26.07,14.6-58.64,14.6-86.44,0-20.43-8.96-33.35-25.84-33.35-19.88,0-46.18,23.66-71.06,67.97,8.19-33.94,11.56-66.79-12.69-66.79-5.28.09-10.42,1.41-15.06,3.91-3.18,1.5-5.14,4.78-4.91,8.28,2.32,36.12-29.12,128.66-58.92,128.66-5.41,0-8.05-5.87-8.05-15.33,0-26.11,15.56-81.25,23.38-106.5,1-3.28,1.55-6.1,1.55-8.55,0-6.92-4.28-10.46-13.97-10.46-10.65,0-22.2,4.05-33.35,23.66-3.91-17.29-15.6-24.84-31.94-24.84-26.8,0-56.73,28.34-69.88,65.28-17.61,49.32-53.09,96.95-100.86,96.95-43.36,0-66.24-36.08-66.24-93.08,0-82.3,60.42-149.54,105.23-149.54,21.43,0,31.66,13.65,31.66,34.58,0,25.34-14.15,37.12-14.15,46.77,0,2.96,2.46,5.87,7.32,5.87,19.47,0,42.4-22.88,42.4-54.09s-25.34-54.05-70.15-54.05c-74.07,0-148.59,74.52-148.59,170.01,0,75.98,37.49,121.79,102.32,121.79,44.22,0,82.85-34.39,103.68-74.52,2.37,33.26,17.47,50.64,40.49,50.64,20.47,0,37.03-12.19,49.68-33.62,4.87,22.43,17.79,33.39,34.58,33.39,19.24,0,35.35-12.19,50.68-34.85-.23,17.79,3.82,34.53,19.24,34.53,7.28,0,15.97-1.68,17.52-8.05,16.24-67.15,56.37-121.97,68.65-121.97,3.64,0,4.64,3.5,4.64,7.64,0,18.24-12.87,55.64-12.87,79.52,0,25.8,10.96,42.86,33.62,42.86,25.11,0,50.64-30.75,67.65-75.7,5.32,41.99,16.83,75.88,34.85,75.88,22.11,0,61.37-46.54,85.17-95.81,9.33,1.18,23.34.86,36.81-8.64-5.73,14.51-9.1,30.39-9.1,46.27,0,45.72,21.84,58.55,40.63,58.55,20.43,0,36.99-12.19,49.68-33.62,4.19,19.34,14.88,33.35,34.53,33.35,30.75,0,57.46-31.44,57.46-57.23,0-6.82-2.91-10.96-6.32-10.96Zm-638.33,43.13c-12.42,0-17.29-12.51-17.29-31.16,0-32.39,22.16-86.49,45.59-86.49,10.24,0,14.1,12.06,14.1,26.8,0,32.89-21.06,90.85-42.4,90.85Zm425.42-96.68c-7.42-8.83-10.1-20.84-10.1-31.53,0-13.19,4.82-24.34,10.6-24.34s7.55,5.69,7.55,13.6c0,13.24-4.73,32.57-8.05,42.26Zm96.31,96.68c-12.42,0-17.29-14.38-17.29-31.16,0-31.25,22.16-86.49,45.77-86.49,10.24,0,13.88,11.97,13.88,26.8,0,32.89-20.7,90.85-42.36,90.85Z"/>
  </g>
  <g class="cls-11">
    <circle class="cls-16" cx="249.27" cy="294.89" r="309.86"/>
    <circle class="cls-7" cx="249.27" cy="294.89" r="309.86"/>
    <circle class="cls-1" cx="249.27" cy="294.89" r="309.86"/>
    <circle class="cls-4" cx="249.27" cy="294.89" r="309.86"/>
    <circle class="cls-18" cx="215.83" cy="288.05" r="309.86"/>
  </g>
  <g>
    <path class="cls-3" d="m403.04,307.61c-.57,0-1.08.37-1.35,1.13-3.41,9.72-8.01,15.51-11.8,15.51-2.18,0-3.06-2.43-3.06-6.23,0-9.52,5.7-29.72,8.58-38.93.33-1.11.55-2.11.55-2.96,0-2.68-1.46-3.99-5.09-3.99-3.91,0-8.11,1.53-12.2,8.69-1.41-6.32-5.68-9.08-11.65-9.08-6.9,0-13.56,4.44-19.05,11.64-5.49,7.2-11.94,9.56-16.79,8.39,3.49-8.54,4.79-14.93,4.79-19.66,0-7.43-3.67-11.92-9.61-11.92-9.03,0-14.23,8.61-14.23,17.67,0,7,3.17,14.2,10.16,17.69-5.85,13.23-14.4,25.2-17.64,25.2-4.19,0-5.42-20.5-5.19-35.16.15-8.41.85-8.84.85-11.39,0-1.46-.95-2.46-4.75-2.46-8.88,0-11.62,7.51-12.03,16.14-.13,3.27-.65,6.53-1.53,9.69-3.71,13.23-11.35,23.27-16.34,23.27-2.31,0-2.94-2.31-2.94-5.34,0-9.52,5.34-21.43,5.34-31.58,0-7.46-3.27-12.18-9.44-12.18-7.26,0-16.87,8.64-25.96,24.83,2.99-12.4,4.22-24.4-4.64-24.4-1.93.03-3.81.52-5.5,1.43-1.16.55-1.88,1.75-1.8,3.03.85,13.2-10.64,47.01-21.53,47.01-1.98,0-2.94-2.14-2.94-5.6,0-9.54,5.68-29.69,8.54-38.91.37-1.2.57-2.23.57-3.13,0-2.53-1.56-3.82-5.1-3.82-3.89,0-8.11,1.48-12.18,8.64-1.43-6.32-5.7-9.08-11.67-9.08-9.79,0-20.73,10.36-25.53,23.85-6.43,18.02-19.4,35.42-36.85,35.42-15.84,0-24.2-13.18-24.2-34.01,0-30.07,22.07-54.64,38.45-54.64,7.83,0,11.57,4.99,11.57,12.63,0,9.26-5.17,13.56-5.17,17.09,0,1.08.9,2.14,2.68,2.14,7.11,0,15.49-8.36,15.49-19.76s-9.26-19.75-25.63-19.75c-27.06,0-54.29,27.23-54.29,62.12,0,27.76,13.7,44.5,37.38,44.5,16.16,0,30.27-12.57,37.88-27.23.86,12.15,6.38,18.5,14.79,18.5,7.48,0,13.53-4.45,18.15-12.28,1.78,8.19,6.5,12.2,12.63,12.2,7.03,0,12.92-4.45,18.52-12.73-.08,6.5,1.4,12.62,7.03,12.62,2.66,0,5.83-.62,6.4-2.94,5.93-24.54,20.6-44.57,25.08-44.57,1.33,0,1.7,1.28,1.7,2.79,0,6.67-4.7,20.33-4.7,29.06,0,9.43,4.01,15.66,12.28,15.66,9.18,0,18.5-11.24,24.72-27.66,1.94,15.34,6.15,27.73,12.73,27.73,8.08,0,22.42-17.01,31.12-35.01,3.41.43,8.53.32,13.45-3.16-2.09,5.3-3.32,11.1-3.32,16.91,0,16.71,7.98,21.39,14.84,21.39,7.46,0,13.51-4.45,18.15-12.28,1.53,7.06,5.44,12.18,12.62,12.18,11.24,0,20.99-11.49,20.99-20.91,0-2.49-1.06-4.01-2.31-4.01Zm-233.23,15.76c-4.54,0-6.32-4.57-6.32-11.39,0-11.84,8.1-31.6,16.66-31.6,3.74,0,5.15,4.41,5.15,9.79,0,12.02-7.7,33.2-15.49,33.2Zm155.44-35.32c-2.71-3.22-3.69-7.61-3.69-11.52,0-4.82,1.76-8.89,3.87-8.89s2.76,2.08,2.76,4.97c0,4.84-1.73,11.9-2.94,15.44Zm35.19,35.32c-4.54,0-6.32-5.25-6.32-11.39,0-11.42,8.1-31.6,16.72-31.6,3.74,0,5.07,4.37,5.07,9.79,0,12.02-7.56,33.2-15.48,33.2Z"/>
    <path class="cls-3" d="m403.04,307.61c-.57,0-1.08.37-1.35,1.13-3.41,9.72-8.01,15.51-11.8,15.51-2.18,0-3.06-2.43-3.06-6.23,0-9.52,5.7-29.72,8.58-38.93.33-1.11.55-2.11.55-2.96,0-2.68-1.46-3.99-5.09-3.99-3.91,0-8.11,1.53-12.2,8.69-1.41-6.32-5.68-9.08-11.65-9.08-6.9,0-13.56,4.44-19.05,11.64-5.49,7.2-11.94,9.56-16.79,8.39,3.49-8.54,4.79-14.93,4.79-19.66,0-7.43-3.67-11.92-9.61-11.92-9.03,0-14.23,8.61-14.23,17.67,0,7,3.17,14.2,10.16,17.69-5.85,13.23-14.4,25.2-17.64,25.2-4.19,0-5.42-20.5-5.19-35.16.15-8.41.85-8.84.85-11.39,0-1.46-.95-2.46-4.75-2.46-8.88,0-11.62,7.51-12.03,16.14-.13,3.27-.65,6.53-1.53,9.69-3.71,13.23-11.35,23.27-16.34,23.27-2.31,0-2.94-2.31-2.94-5.34,0-9.52,5.34-21.43,5.34-31.58,0-7.46-3.27-12.18-9.44-12.18-7.26,0-16.87,8.64-25.96,24.83,2.99-12.4,4.22-24.4-4.64-24.4-1.93.03-3.81.52-5.5,1.43-1.16.55-1.88,1.75-1.8,3.03.85,13.2-10.64,47.01-21.53,47.01-1.98,0-2.94-2.14-2.94-5.6,0-9.54,5.68-29.69,8.54-38.91.37-1.2.57-2.23.57-3.13,0-2.53-1.56-3.82-5.1-3.82-3.89,0-8.11,1.48-12.18,8.64-1.43-6.32-5.7-9.08-11.67-9.08-9.79,0-20.73,10.36-25.53,23.85-6.43,18.02-19.4,35.42-36.85,35.42-15.84,0-24.2-13.18-24.2-34.01,0-30.07,22.07-54.64,38.45-54.64,7.83,0,11.57,4.99,11.57,12.63,0,9.26-5.17,13.56-5.17,17.09,0,1.08.9,2.14,2.68,2.14,7.11,0,15.49-8.36,15.49-19.76s-9.26-19.75-25.63-19.75c-27.06,0-54.29,27.23-54.29,62.12,0,27.76,13.7,44.5,37.38,44.5,16.16,0,30.27-12.57,37.88-27.23.86,12.15,6.38,18.5,14.79,18.5,7.48,0,13.53-4.45,18.15-12.28,1.78,8.19,6.5,12.2,12.63,12.2,7.03,0,12.92-4.45,18.52-12.73-.08,6.5,1.4,12.62,7.03,12.62,2.66,0,5.83-.62,6.4-2.94,5.93-24.54,20.6-44.57,25.08-44.57,1.33,0,1.7,1.28,1.7,2.79,0,6.67-4.7,20.33-4.7,29.06,0,9.43,4.01,15.66,12.28,15.66,9.18,0,18.5-11.24,24.72-27.66,1.94,15.34,6.15,27.73,12.73,27.73,8.08,0,22.42-17.01,31.12-35.01,3.41.43,8.53.32,13.45-3.16-2.09,5.3-3.32,11.1-3.32,16.91,0,16.71,7.98,21.39,14.84,21.39,7.46,0,13.51-4.45,18.15-12.28,1.53,7.06,5.44,12.18,12.62,12.18,11.24,0,20.99-11.49,20.99-20.91,0-2.49-1.06-4.01-2.31-4.01Zm-233.23,15.76c-4.54,0-6.32-4.57-6.32-11.39,0-11.84,8.1-31.6,16.66-31.6,3.74,0,5.15,4.41,5.15,9.79,0,12.02-7.7,33.2-15.49,33.2Zm155.44-35.32c-2.71-3.22-3.69-7.61-3.69-11.52,0-4.82,1.76-8.89,3.87-8.89s2.76,2.08,2.76,4.97c0,4.84-1.73,11.9-2.94,15.44Zm35.19,35.32c-4.54,0-6.32-5.25-6.32-11.39,0-11.42,8.1-31.6,16.72-31.6,3.74,0,5.07,4.37,5.07,9.79,0,12.02-7.56,33.2-15.48,33.2Z"/>
    <path class="cls-3" d="m403.04,307.61c-.57,0-1.08.37-1.35,1.13-3.41,9.72-8.01,15.51-11.8,15.51-2.18,0-3.06-2.43-3.06-6.23,0-9.52,5.7-29.72,8.58-38.93.33-1.11.55-2.11.55-2.96,0-2.68-1.46-3.99-5.09-3.99-3.91,0-8.11,1.53-12.2,8.69-1.41-6.32-5.68-9.08-11.65-9.08-6.9,0-13.56,4.44-19.05,11.64-5.49,7.2-11.94,9.56-16.79,8.39,3.49-8.54,4.79-14.93,4.79-19.66,0-7.43-3.67-11.92-9.61-11.92-9.03,0-14.23,8.61-14.23,17.67,0,7,3.17,14.2,10.16,17.69-5.85,13.23-14.4,25.2-17.64,25.2-4.19,0-5.42-20.5-5.19-35.16.15-8.41.85-8.84.85-11.39,0-1.46-.95-2.46-4.75-2.46-8.88,0-11.62,7.51-12.03,16.14-.13,3.27-.65,6.53-1.53,9.69-3.71,13.23-11.35,23.27-16.34,23.27-2.31,0-2.94-2.31-2.94-5.34,0-9.52,5.34-21.43,5.34-31.58,0-7.46-3.27-12.18-9.44-12.18-7.26,0-16.87,8.64-25.96,24.83,2.99-12.4,4.22-24.4-4.64-24.4-1.93.03-3.81.52-5.5,1.43-1.16.55-1.88,1.75-1.8,3.03.85,13.2-10.64,47.01-21.53,47.01-1.98,0-2.94-2.14-2.94-5.6,0-9.54,5.68-29.69,8.54-38.91.37-1.2.57-2.23.57-3.13,0-2.53-1.56-3.82-5.1-3.82-3.89,0-8.11,1.48-12.18,8.64-1.43-6.32-5.7-9.08-11.67-9.08-9.79,0-20.73,10.36-25.53,23.85-6.43,18.02-19.4,35.42-36.85,35.42-15.84,0-24.2-13.18-24.2-34.01,0-30.07,22.07-54.64,38.45-54.64,7.83,0,11.57,4.99,11.57,12.63,0,9.26-5.17,13.56-5.17,17.09,0,1.08.9,2.14,2.68,2.14,7.11,0,15.49-8.36,15.49-19.76s-9.26-19.75-25.63-19.75c-27.06,0-54.29,27.23-54.29,62.12,0,27.76,13.7,44.5,37.38,44.5,16.16,0,30.27-12.57,37.88-27.23.86,12.15,6.38,18.5,14.79,18.5,7.48,0,13.53-4.45,18.15-12.28,1.78,8.19,6.5,12.2,12.63,12.2,7.03,0,12.92-4.45,18.52-12.73-.08,6.5,1.4,12.62,7.03,12.62,2.66,0,5.83-.62,6.4-2.94,5.93-24.54,20.6-44.57,25.08-44.57,1.33,0,1.7,1.28,1.7,2.79,0,6.67-4.7,20.33-4.7,29.06,0,9.43,4.01,15.66,12.28,15.66,9.18,0,18.5-11.24,24.72-27.66,1.94,15.34,6.15,27.73,12.73,27.73,8.08,0,22.42-17.01,31.12-35.01,3.41.43,8.53.32,13.45-3.16-2.09,5.3-3.32,11.1-3.32,16.91,0,16.71,7.98,21.39,14.84,21.39,7.46,0,13.51-4.45,18.15-12.28,1.53,7.06,5.44,12.18,12.62,12.18,11.24,0,20.99-11.49,20.99-20.91,0-2.49-1.06-4.01-2.31-4.01Zm-233.23,15.76c-4.54,0-6.32-4.57-6.32-11.39,0-11.84,8.1-31.6,16.66-31.6,3.74,0,5.15,4.41,5.15,9.79,0,12.02-7.7,33.2-15.49,33.2Zm155.44-35.32c-2.71-3.22-3.69-7.61-3.69-11.52,0-4.82,1.76-8.89,3.87-8.89s2.76,2.08,2.76,4.97c0,4.84-1.73,11.9-2.94,15.44Zm35.19,35.32c-4.54,0-6.32-5.25-6.32-11.39,0-11.42,8.1-31.6,16.72-31.6,3.74,0,5.07,4.37,5.07,9.79,0,12.02-7.56,33.2-15.48,33.2Z"/>
    <path class="cls-3" d="m403.04,307.61c-.57,0-1.08.37-1.35,1.13-3.41,9.72-8.01,15.51-11.8,15.51-2.18,0-3.06-2.43-3.06-6.23,0-9.52,5.7-29.72,8.58-38.93.33-1.11.55-2.11.55-2.96,0-2.68-1.46-3.99-5.09-3.99-3.91,0-8.11,1.53-12.2,8.69-1.41-6.32-5.68-9.08-11.65-9.08-6.9,0-13.56,4.44-19.05,11.64-5.49,7.2-11.94,9.56-16.79,8.39,3.49-8.54,4.79-14.93,4.79-19.66,0-7.43-3.67-11.92-9.61-11.92-9.03,0-14.23,8.61-14.23,17.67,0,7,3.17,14.2,10.16,17.69-5.85,13.23-14.4,25.2-17.64,25.2-4.19,0-5.42-20.5-5.19-35.16.15-8.41.85-8.84.85-11.39,0-1.46-.95-2.46-4.75-2.46-8.88,0-11.62,7.51-12.03,16.14-.13,3.27-.65,6.53-1.53,9.69-3.71,13.23-11.35,23.27-16.34,23.27-2.31,0-2.94-2.31-2.94-5.34,0-9.52,5.34-21.43,5.34-31.58,0-7.46-3.27-12.18-9.44-12.18-7.26,0-16.87,8.64-25.96,24.83,2.99-12.4,4.22-24.4-4.64-24.4-1.93.03-3.81.52-5.5,1.43-1.16.55-1.88,1.75-1.8,3.03.85,13.2-10.64,47.01-21.53,47.01-1.98,0-2.94-2.14-2.94-5.6,0-9.54,5.68-29.69,8.54-38.91.37-1.2.57-2.23.57-3.13,0-2.53-1.56-3.82-5.1-3.82-3.89,0-8.11,1.48-12.18,8.64-1.43-6.32-5.7-9.08-11.67-9.08-9.79,0-20.73,10.36-25.53,23.85-6.43,18.02-19.4,35.42-36.85,35.42-15.84,0-24.2-13.18-24.2-34.01,0-30.07,22.07-54.64,38.45-54.64,7.83,0,11.57,4.99,11.57,12.63,0,9.26-5.17,13.56-5.17,17.09,0,1.08.9,2.14,2.68,2.14,7.11,0,15.49-8.36,15.49-19.76s-9.26-19.75-25.63-19.75c-27.06,0-54.29,27.23-54.29,62.12,0,27.76,13.7,44.5,37.38,44.5,16.16,0,30.27-12.57,37.88-27.23.86,12.15,6.38,18.5,14.79,18.5,7.48,0,13.53-4.45,18.15-12.28,1.78,8.19,6.5,12.2,12.63,12.2,7.03,0,12.92-4.45,18.52-12.73-.08,6.5,1.4,12.62,7.03,12.62,2.66,0,5.83-.62,6.4-2.94,5.93-24.54,20.6-44.57,25.08-44.57,1.33,0,1.7,1.28,1.7,2.79,0,6.67-4.7,20.33-4.7,29.06,0,9.43,4.01,15.66,12.28,15.66,9.18,0,18.5-11.24,24.72-27.66,1.94,15.34,6.15,27.73,12.73,27.73,8.08,0,22.42-17.01,31.12-35.01,3.41.43,8.53.32,13.45-3.16-2.09,5.3-3.32,11.1-3.32,16.91,0,16.71,7.98,21.39,14.84,21.39,7.46,0,13.51-4.45,18.15-12.28,1.53,7.06,5.44,12.18,12.62,12.18,11.24,0,20.99-11.49,20.99-20.91,0-2.49-1.06-4.01-2.31-4.01Zm-233.23,15.76c-4.54,0-6.32-4.57-6.32-11.39,0-11.84,8.1-31.6,16.66-31.6,3.74,0,5.15,4.41,5.15,9.79,0,12.02-7.7,33.2-15.49,33.2Zm155.44-35.32c-2.71-3.22-3.69-7.61-3.69-11.52,0-4.82,1.76-8.89,3.87-8.89s2.76,2.08,2.76,4.97c0,4.84-1.73,11.9-2.94,15.44Zm35.19,35.32c-4.54,0-6.32-5.25-6.32-11.39,0-11.42,8.1-31.6,16.72-31.6,3.74,0,5.07,4.37,5.07,9.79,0,12.02-7.56,33.2-15.48,33.2Z"/>
    <path class="cls-3" d="m403.04,307.61c-.57,0-1.08.37-1.35,1.13-3.41,9.72-8.01,15.51-11.8,15.51-2.18,0-3.06-2.43-3.06-6.23,0-9.52,5.7-29.72,8.58-38.93.33-1.11.55-2.11.55-2.96,0-2.68-1.46-3.99-5.09-3.99-3.91,0-8.11,1.53-12.2,8.69-1.41-6.32-5.68-9.08-11.65-9.08-6.9,0-13.56,4.44-19.05,11.64-5.49,7.2-11.94,9.56-16.79,8.39,3.49-8.54,4.79-14.93,4.79-19.66,0-7.43-3.67-11.92-9.61-11.92-9.03,0-14.23,8.61-14.23,17.67,0,7,3.17,14.2,10.16,17.69-5.85,13.23-14.4,25.2-17.64,25.2-4.19,0-5.42-20.5-5.19-35.16.15-8.41.85-8.84.85-11.39,0-1.46-.95-2.46-4.75-2.46-8.88,0-11.62,7.51-12.03,16.14-.13,3.27-.65,6.53-1.53,9.69-3.71,13.23-11.35,23.27-16.34,23.27-2.31,0-2.94-2.31-2.94-5.34,0-9.52,5.34-21.43,5.34-31.58,0-7.46-3.27-12.18-9.44-12.18-7.26,0-16.87,8.64-25.96,24.83,2.99-12.4,4.22-24.4-4.64-24.4-1.93.03-3.81.52-5.5,1.43-1.16.55-1.88,1.75-1.8,3.03.85,13.2-10.64,47.01-21.53,47.01-1.98,0-2.94-2.14-2.94-5.6,0-9.54,5.68-29.69,8.54-38.91.37-1.2.57-2.23.57-3.13,0-2.53-1.56-3.82-5.1-3.82-3.89,0-8.11,1.48-12.18,8.64-1.43-6.32-5.7-9.08-11.67-9.08-9.79,0-20.73,10.36-25.53,23.85-6.43,18.02-19.4,35.42-36.85,35.42-15.84,0-24.2-13.18-24.2-34.01,0-30.07,22.07-54.64,38.45-54.64,7.83,0,11.57,4.99,11.57,12.63,0,9.26-5.17,13.56-5.17,17.09,0,1.08.9,2.14,2.68,2.14,7.11,0,15.49-8.36,15.49-19.76s-9.26-19.75-25.63-19.75c-27.06,0-54.29,27.23-54.29,62.12,0,27.76,13.7,44.5,37.38,44.5,16.16,0,30.27-12.57,37.88-27.23.86,12.15,6.38,18.5,14.79,18.5,7.48,0,13.53-4.45,18.15-12.28,1.78,8.19,6.5,12.2,12.63,12.2,7.03,0,12.92-4.45,18.52-12.73-.08,6.5,1.4,12.62,7.03,12.62,2.66,0,5.83-.62,6.4-2.94,5.93-24.54,20.6-44.57,25.08-44.57,1.33,0,1.7,1.28,1.7,2.79,0,6.67-4.7,20.33-4.7,29.06,0,9.43,4.01,15.66,12.28,15.66,9.18,0,18.5-11.24,24.72-27.66,1.94,15.34,6.15,27.73,12.73,27.73,8.08,0,22.42-17.01,31.12-35.01,3.41.43,8.53.32,13.45-3.16-2.09,5.3-3.32,11.1-3.32,16.91,0,16.71,7.98,21.39,14.84,21.39,7.46,0,13.51-4.45,18.15-12.28,1.53,7.06,5.44,12.18,12.62,12.18,11.24,0,20.99-11.49,20.99-20.91,0-2.49-1.06-4.01-2.31-4.01Zm-233.23,15.76c-4.54,0-6.32-4.57-6.32-11.39,0-11.84,8.1-31.6,16.66-31.6,3.74,0,5.15,4.41,5.15,9.79,0,12.02-7.7,33.2-15.49,33.2Zm155.44-35.32c-2.71-3.22-3.69-7.61-3.69-11.52,0-4.82,1.76-8.89,3.87-8.89s2.76,2.08,2.76,4.97c0,4.84-1.73,11.9-2.94,15.44Zm35.19,35.32c-4.54,0-6.32-5.25-6.32-11.39,0-11.42,8.1-31.6,16.72-31.6,3.74,0,5.07,4.37,5.07,9.79,0,12.02-7.56,33.2-15.48,33.2Z"/>
    <path class="cls-3" d="m403.04,307.61c-.57,0-1.08.37-1.35,1.13-3.41,9.72-8.01,15.51-11.8,15.51-2.18,0-3.06-2.43-3.06-6.23,0-9.52,5.7-29.72,8.58-38.93.33-1.11.55-2.11.55-2.96,0-2.68-1.46-3.99-5.09-3.99-3.91,0-8.11,1.53-12.2,8.69-1.41-6.32-5.68-9.08-11.65-9.08-6.9,0-13.56,4.44-19.05,11.64-5.49,7.2-11.94,9.56-16.79,8.39,3.49-8.54,4.79-14.93,4.79-19.66,0-7.43-3.67-11.92-9.61-11.92-9.03,0-14.23,8.61-14.23,17.67,0,7,3.17,14.2,10.16,17.69-5.85,13.23-14.4,25.2-17.64,25.2-4.19,0-5.42-20.5-5.19-35.16.15-8.41.85-8.84.85-11.39,0-1.46-.95-2.46-4.75-2.46-8.88,0-11.62,7.51-12.03,16.14-.13,3.27-.65,6.53-1.53,9.69-3.71,13.23-11.35,23.27-16.34,23.27-2.31,0-2.94-2.31-2.94-5.34,0-9.52,5.34-21.43,5.34-31.58,0-7.46-3.27-12.18-9.44-12.18-7.26,0-16.87,8.64-25.96,24.83,2.99-12.4,4.22-24.4-4.64-24.4-1.93.03-3.81.52-5.5,1.43-1.16.55-1.88,1.75-1.8,3.03.85,13.2-10.64,47.01-21.53,47.01-1.98,0-2.94-2.14-2.94-5.6,0-9.54,5.68-29.69,8.54-38.91.37-1.2.57-2.23.57-3.13,0-2.53-1.56-3.82-5.1-3.82-3.89,0-8.11,1.48-12.18,8.64-1.43-6.32-5.7-9.08-11.67-9.08-9.79,0-20.73,10.36-25.53,23.85-6.43,18.02-19.4,35.42-36.85,35.42-15.84,0-24.2-13.18-24.2-34.01,0-30.07,22.07-54.64,38.45-54.64,7.83,0,11.57,4.99,11.57,12.63,0,9.26-5.17,13.56-5.17,17.09,0,1.08.9,2.14,2.68,2.14,7.11,0,15.49-8.36,15.49-19.76s-9.26-19.75-25.63-19.75c-27.06,0-54.29,27.23-54.29,62.12,0,27.76,13.7,44.5,37.38,44.5,16.16,0,30.27-12.57,37.88-27.23.86,12.15,6.38,18.5,14.79,18.5,7.48,0,13.53-4.45,18.15-12.28,1.78,8.19,6.5,12.2,12.63,12.2,7.03,0,12.92-4.45,18.52-12.73-.08,6.5,1.4,12.62,7.03,12.62,2.66,0,5.83-.62,6.4-2.94,5.93-24.54,20.6-44.57,25.08-44.57,1.33,0,1.7,1.28,1.7,2.79,0,6.67-4.7,20.33-4.7,29.06,0,9.43,4.01,15.66,12.28,15.66,9.18,0,18.5-11.24,24.72-27.66,1.94,15.34,6.15,27.73,12.73,27.73,8.08,0,22.42-17.01,31.12-35.01,3.41.43,8.53.32,13.45-3.16-2.09,5.3-3.32,11.1-3.32,16.91,0,16.71,7.98,21.39,14.84,21.39,7.46,0,13.51-4.45,18.15-12.28,1.53,7.06,5.44,12.18,12.62,12.18,11.24,0,20.99-11.49,20.99-20.91,0-2.49-1.06-4.01-2.31-4.01Zm-233.23,15.76c-4.54,0-6.32-4.57-6.32-11.39,0-11.84,8.1-31.6,16.66-31.6,3.74,0,5.15,4.41,5.15,9.79,0,12.02-7.7,33.2-15.49,33.2Zm155.44-35.32c-2.71-3.22-3.69-7.61-3.69-11.52,0-4.82,1.76-8.89,3.87-8.89s2.76,2.08,2.76,4.97c0,4.84-1.73,11.9-2.94,15.44Zm35.19,35.32c-4.54,0-6.32-5.25-6.32-11.39,0-11.42,8.1-31.6,16.72-31.6,3.74,0,5.07,4.37,5.07,9.79,0,12.02-7.56,33.2-15.48,33.2Z"/>
  </g>
  <circle class="cls-16" cx="709.04" cy="288.05" r="205.01"/>
  <circle class="cls-2" cx="709.04" cy="288.05" r="205.01"/>
  <circle class="cls-17" cx="709.04" cy="288.05" r="205.01"/>
  <circle class="cls-8" cx="709.04" cy="288.05" r="205.01"/>
  <circle class="cls-10" cx="709.04" cy="288.05" r="205.01"/>
  <path class="cls-3" d="m797.55,330.1c-1.69,0-3.18,1.43-4.73,4.55-17.5,35.48-47.72,60.58-82.69,60.58-40.44,0-65.48-36.5-65.48-86.93,0-85.42,47.59-134.81,89.4-134.81,19.53,0,31.46,12.28,31.46,31.81,0,23.19-13.17,35.46-13.17,43.64,0,3.67,2.28,5.89,6.81,5.89,18.19,0,39.54-20.9,39.54-50.43s-24.92-49.67-66.72-49.67c-69.09,0-130.49,64.05-130.49,152.67,0,68.6,39.17,113.93,99.61,113.93,64.15,0,101.25-63.83,101.25-84.54,0-4.59-2.35-6.69-4.79-6.69h0Z"/>
</svg>